<?xml version="1.0" standalone="no"?>
<!DOCTYPE svg PUBLIC "-//W3C//DTD SVG 20010904//EN"
 "http://www.w3.org/TR/2001/REC-SVG-20010904/DTD/svg10.dtd">
<svg version="1.0" xmlns="http://www.w3.org/2000/svg"
 width="1000.000000pt" height="1000.000000pt" viewBox="0 0 1000.000000 1000.000000"
 preserveAspectRatio="xMidYMid meet">
<metadata>
Created by potrace 1.11, written by Peter Selinger 2001-2013
</metadata>
<g transform="translate(0.000000,1000.000000) scale(0.100000,-0.100000)"
fill="#000000" stroke="none">
<path d="M0 5000 l0 -5000 5000 0 5000 0 0 5000 0 5000 -5000 0 -5000 0 0
-5000z m1970 3380 c436 -14 876 -12 1760 6 1035 22 1406 13 1840 -42 1181
-149 2007 -589 2501 -1332 264 -398 417 -844 485 -1417 21 -179 30 -663 15
-849 -39 -483 -151 -890 -353 -1289 -314 -617 -811 -1090 -1482 -1412 -533
-256 -1107 -392 -1836 -436 -204 -12 -488 -10 -1410 12 -389 9 -664 9 -1200 0
-382 -7 -734 -15 -782 -18 l-88 -6 0 96 0 95 68 7 c299 28 400 61 484 154 53
59 82 131 106 260 16 89 17 281 17 2786 0 2514 -1 2696 -17 2787 -23 125 -50
196 -99 257 -78 99 -190 137 -491 166 l-68 7 0 95 0 95 123 -6 c67 -4 259 -11
427 -16z"/>
<path d="M4575 8220 c-354 -35 -474 -159 -514 -532 -15 -134 -15 -5240 -1
-5376 34 -317 131 -452 362 -507 119 -28 324 -39 486 -27 409 33 709 165 955
422 288 300 476 739 593 1390 129 715 147 1798 44 2588 -79 603 -227 1060
-451 1398 -87 130 -275 324 -389 399 -170 113 -365 189 -576 225 -134 23 -380
33 -509 20z"/>
</g>
</svg>
